<?xml version="1.0" encoding="utf-8"?>
<!-- Generator: Adobe Illustrator 28.1.0, SVG Export Plug-In . SVG Version: 6.00 Build 0)  -->
<svg version="1.1" id="Layer_1" xmlns="http://www.w3.org/2000/svg" xmlns:xlink="http://www.w3.org/1999/xlink" x="0px" y="0px"
	 viewBox="0 0 1500 500" style="enable-background:new 0 0 1500 500;" xml:space="preserve">
<style type="text/css">
	.st0{fill:url(#SVGID_1_);}
	.st1{fill:url(#SVGID_00000118358828820862656470000012069987818953875349_);}
	.st2{fill:#FF6633;}
	.st3{fill:#1FBEC9;}
	.st4{fill:url(#SVGID_00000025425681734697805270000009793393174984803974_);}
	.st5{fill:url(#SVGID_00000181802362154648851060000011622097924393415615_);}
</style>
<g>
	<linearGradient id="SVGID_1_" gradientUnits="userSpaceOnUse" x1="357.6964" y1="373.3339" x2="398.3826" y2="426.2753">
		<stop  offset="0" style="stop-color:#15768C"/>
		<stop  offset="0.1694" style="stop-color:#188B9D"/>
		<stop  offset="0.3807" style="stop-color:#1A9EAC"/>
		<stop  offset="0.5982" style="stop-color:#1CA9B5"/>
		<stop  offset="0.8297" style="stop-color:#1CADB8"/>
	</linearGradient>
	<path class="st0" d="M238.5,420.1c42.2,28.7,91.6,38.7,136.8,23.1c51.7-17.9,85.9-65.5,96.1-123.7c-34,25.2-78,49.6-127.7,69.3
		C306.8,403.5,271,413.9,238.5,420.1z"/>
	
		<linearGradient id="SVGID_00000119799159874713110810000008806022131694559165_" gradientUnits="userSpaceOnUse" x1="149.1979" y1="147.1674" x2="308.5222" y2="63.7118">
		<stop  offset="6.610756e-02" style="stop-color:#FF6633"/>
		<stop  offset="0.2371" style="stop-color:#FF7133"/>
		<stop  offset="0.6373" style="stop-color:#FF8733"/>
		<stop  offset="0.8966" style="stop-color:#FF8F33"/>
	</linearGradient>
	<path style="fill:url(#SVGID_00000119799159874713110810000008806022131694559165_);" d="M363.3,77.9
		c-40.1-24.1-85.7-31.8-127.6-17.3c-49.4,17.1-82.7,61.2-94.6,115.8c34-25.2,78-49.6,127.8-69.4C301.8,93.9,333.8,84.2,363.3,77.9z"
		/>
	<path class="st2" d="M517.6,102.9c-10.3-34.3-73-42.5-154.2-25c-29.5,6.3-61.5,16-94.4,29.1c-49.7,19.8-93.8,44.2-127.8,69.4
		c-50.2,37.2-78.3,76.1-69.9,104c6.9,23,38.7,34.3,83.3,32.7c44.4-1.5,101.6-15.8,159.7-43.7c-69.9,15.5-122.9,13.2-121.6-7
		c1.9-29.6,73-85.9,179.2-125.5c15.4-5.7,29.8-10.7,43.3-14.9c45.5-14.3,80.2-20.4,102.8-18.2C517.7,103.5,517.7,103.2,517.6,102.9z
		"/>
	<path class="st3" d="M541.4,215.4c-7.2-23.9-41-35.1-88.2-32.5c-43.7,2.4-98.7,16.6-154.7,43.5c69.9-15.5,122.9-13.2,121.6,7
		c-1.9,29.6-73,85.9-179.2,125.5c-17.9,6.7-34.5,12.3-49.9,17c-42.2,12.9-74.7,18.2-96.1,16.1c0.1,0.3,0.1,0.6,0.2,0.9
		c9.9,32.8,67.4,41.7,143.4,27.2c32.5-6.2,68.3-16.6,105.2-31.3c49.7-19.8,93.7-44.2,127.7-69.3
		C521.7,282.2,549.8,243.3,541.4,215.4z"/>
	
		<linearGradient id="SVGID_00000004520918628450954770000016223394760727981193_" gradientUnits="userSpaceOnUse" x1="146.5427" y1="256.1995" x2="380.2183" y2="145.4312">
		<stop  offset="0" style="stop-color:#ED5F2F"/>
		<stop  offset="1" style="stop-color:#FF6633"/>
	</linearGradient>
	<path style="fill:url(#SVGID_00000004520918628450954770000016223394760727981193_);" d="M192.6,262.4
		c1.9-29.6,73-85.9,179.2-125.5c15.4-5.7,29.8-10.7,43.3-14.9c-15.4-17.9-33-32.8-51.7-44.1c-29.5,6.3-61.5,16-94.4,29.1
		c-49.7,19.8-93.8,44.2-127.8,69.4c-8.6,39.5-5.9,84.5,10.3,128.8c1,2.7,2,5.3,3.1,7.9c44.4-1.5,101.6-15.8,159.7-43.7
		C244.3,284.9,191.3,282.7,192.6,262.4z"/>
	
		<linearGradient id="SVGID_00000025443661365470244070000009673335430330579115_" gradientUnits="userSpaceOnUse" x1="195.9745" y1="354.3317" x2="419.0285" y2="269.3587">
		<stop  offset="0" style="stop-color:#1BACB5"/>
		<stop  offset="0.9115" style="stop-color:#1FBEC9"/>
	</linearGradient>
	<path style="fill:url(#SVGID_00000025443661365470244070000009673335430330579115_);" d="M459.5,198.6c-2-5.3-4.1-10.5-6.4-15.7
		c-43.7,2.4-98.7,16.6-154.7,43.5c69.9-15.5,122.9-13.2,121.6,7c-1.9,29.6-73,85.9-179.2,125.5c-17.9,6.7-34.5,12.3-49.9,17
		c14.1,17.6,30.2,32.5,47.5,44.3c32.5-6.2,68.3-16.6,105.2-31.3c49.7-19.8,93.7-44.2,127.7-69.3C478,281.9,474.6,240,459.5,198.6z"
		/>
</g>
<g>
	<g>
		<path d="M690.6,332.6c-13.4-4.4-25.1-10.6-34.9-18.5l21.6-30.2c15.7,12.3,34.1,18.5,55,18.5c10.5,0,18.8-1.8,25-5.3
			c6.2-3.6,9.3-8.4,9.3-14.5c0-5.7-2.9-10.2-8.6-13.4c-5.7-3.2-14.9-5.5-27.4-6.8c-24.2-2.7-41.9-8.4-53.1-17
			c-11.2-8.6-16.9-21-16.9-37c0-10.8,3-20.4,9.1-28.6c6.1-8.3,14.6-14.7,25.6-19.3c11-4.6,23.7-6.8,38-6.8c12.3,0,24.4,1.8,36.1,5.3
			c11.7,3.5,22.1,8.5,31.1,15L781,203.1c-13.9-9.6-29.2-14.5-45.9-14.5c-10.3,0-18.6,1.7-24.7,5.1c-6.2,3.4-9.3,7.9-9.3,13.7
			c0,5.6,2.7,9.9,8,12.9c5.3,3,14.2,5.3,26.7,6.8c24,2.7,41.9,8.7,53.8,17.9c11.8,9.2,17.7,21.8,17.7,37.9c0,11.2-3.1,21-9.4,29.5
			c-6.3,8.5-15,15.1-26.4,19.8c-11.3,4.6-24.3,7-39,7C718,339.2,704,337,690.6,332.6z"/>
		<path d="M829.7,157.7h39.8v177.5h-39.8V157.7z"/>
		<path d="M1030.7,209.9v125.3h-34.5l-2.5-15c-10.6,11.7-24.5,17.5-41.6,17.5c-11.7,0-22-2.7-31.1-8.2c-9-5.5-16.1-13.2-21.2-23.1
			c-5.1-9.9-7.6-21.2-7.6-33.8c0-12.7,2.5-24,7.6-33.8c5.1-9.9,12.1-17.6,21.2-23.1c9-5.5,19.4-8.2,31.1-8.2
			c8.4,0,16.2,1.5,23.3,4.4c7.1,3,13.2,7.2,18.3,12.8l2.5-14.7H1030.7z M983.1,295.5c5.6-5.8,8.4-13.5,8.4-22.9
			c0-9.5-2.8-17.1-8.4-22.9c-5.6-5.8-12.8-8.7-21.6-8.7c-8.8,0-15.9,3-21.4,8.9c-5.5,5.9-8.2,13.5-8.2,22.8c0,9.3,2.7,16.9,8.2,22.8
			c5.5,5.9,12.6,8.9,21.4,8.9C970.3,304.2,977.5,301.3,983.1,295.5z"/>
		<path d="M1175.1,222.3c9.2,10.1,13.8,24.2,13.8,42.1v70.7h-39.8v-68.5c0-8.1-2-14.5-6.1-19s-9.6-6.8-16.7-6.8
			c-7.8,0-14,2.6-18.8,7.9c-4.7,5.2-7.1,12.1-7.1,20.5v65.9h-39.8V209.9h34.5l2.5,14.7c4.9-5.6,10.8-9.9,17.6-12.9
			c6.8-3,14.4-4.6,22.7-4.6C1153.5,207.1,1165.9,212.2,1175.1,222.3z"/>
		<path d="M1341.2,330.7c4.6,6.8,7,14.7,7,23.7c0,10.5-2.9,19.7-8.6,27.8c-5.7,8-13.9,14.2-24.3,18.5c-10.5,4.3-22.7,6.5-36.5,6.5
			c-13.5,0-25.4-2.2-35.5-6.6c-10.1-4.4-18-10.6-23.5-18.8c-5.5-8.1-8.2-17.5-8.2-28.1c0-2.7,0.1-4.7,0.3-6.1h38.3
			c-0.3,8.3,2,14.7,7,19.3c5,4.6,12.2,6.8,21.7,6.8c8.5,0,15.3-1.9,20.5-5.7c5.2-3.8,7.9-8.8,7.9-15.1c0-6.4-2.4-11.4-7.2-14.8
			c-4.8-3.5-11.7-5.2-20.7-5.2c-13.9,0-26-2.6-36.4-7.9c-10.4-5.2-18.4-12.6-24.1-22.2c-5.7-9.5-8.5-20.7-8.5-33.3
			c0-12.2,2.9-23,8.7-32.6c5.8-9.5,13.9-17,24.3-22.3c10.4-5.3,22.3-8,35.6-8c10.3,0,19.8,2,28.4,6.1l14.7-18.3l29.2,21l-16.7,19.5
			c8.4,9.6,12.7,21.1,12.7,34.5c0,9.3-2.2,17.9-6.7,25.7c-4.5,7.9-10.8,14.3-18.9,19.4C1330,318.5,1336.5,323.9,1341.2,330.7z
			 M1300.2,291c5.4-5.4,8.1-12.6,8.1-21.6c0-9-2.7-16.1-8-21.4s-12.5-8-21.4-8c-8.8,0-15.9,2.7-21.3,8c-5.4,5.3-8.1,12.5-8.1,21.4
			c0,8.8,2.7,15.9,8.1,21.4c5.4,5.5,12.5,8.2,21.3,8.2C1287.7,299.2,1294.8,296.5,1300.2,291z"/>
	</g>
	<g>
		<polygon points="1375.2,214.5 1385.1,214.5 1385.1,240.3 1394.4,240.3 1394.4,214.5 1404.3,214.5 1404.3,206.2 1375.2,206.2 		"/>
		<polygon points="1438.6,206.2 1427.9,219.5 1417.2,206.2 1409.2,206.2 1409.2,240.3 1418.4,240.3 1418.4,221.4 1426.8,231.7 
			1429.1,231.7 1437.5,221.5 1437.5,240.3 1446.7,240.3 1446.7,206.2 		"/>
	</g>
</g>
</svg>
